# xmcd CD database file
#
# Track frame offsets:
#	150
#	17792
#	35187
#
# Disc length: 646 seconds
#
# Revision: 0
# Processed by: cddbd v1.5.1PL2 Copyright (c) Steve Scherf et al.
# Submitted via: CDex 1.51
#
DISCID=21028403
DTITLE=bbmac - Still On Your Side [CDS)
DYEAR=1999
DGENRE=Pop
TTITLE0=Still On Your Side
TTITLE1=I Can't Go On Like This
TTITLE2=Back Home (Demo)
EXTD=YEAR: 1999
EXTT0=
EXTT1=
EXTT2=
PLAYORDER=
